<svg xmlns="http://www.w3.org/2000/svg" viewBox="0 0 1200 560" role="img" aria-label="周末散步插画"><rect width="1200" height="560" fill="#dfe9d8"/><path d="M0 390C160 330 290 420 440 380s260-90 410-22 220 48 350-8v210H0z" fill="#a9c79c"/><circle cx="1030" cy="105" r="62" fill="#f4d789"/><path d="M0 458h1200v102H0z" fill="#f8efd9"/><path d="M80 170h185v220H80z" rx="12" fill="#f7f3e9"/><path d="M100 190h145v70H100z" fill="#789a75"/><path d="M125 220h95" stroke="#f7f3e9" stroke-width="10"/><path d="M870 195h160v188H870z" rx="12" fill="#d88b6d"/><path d="M892 222h116v52H892z" fill="#f7dfaa"/><path d="M951 98c-28-58-110-76-148-2 35-12 70-2 100 30-14-42 5-85 48-28z" fill="#6e9a71"/><path d="M786 130c-12-42-65-62-92-15 27-4 50 8 65 34-4-30 12-48 27-19z" fill="#82aa7e"/><g transform="translate(535 250)"><ellipse cx="0" cy="162" rx="74" ry="13" fill="#83a881" opacity=".32"/><circle cx="0" cy="62" r="73" fill="#f7e5b8"/><circle cx="-25" cy="55" r="7" fill="#40523e"/><circle cx="26" cy="55" r="7" fill="#40523e"/><path d="M-12 82q12 12 24 0" fill="none" stroke="#b96e58" stroke-width="6" stroke-linecap="round"/><path d="M-75 61q-37-27-48 18 26 1 46 19M75 61q37-27 48 18-26 1-46 19" fill="#f0d19b"/><path d="M-47 126l-34 100M45 126l32 100" stroke="#5b7759" stroke-width="18" stroke-linecap="round"/><path d="M-58 146l-55 38M58 146l55 38" stroke="#5b7759" stroke-width="15" stroke-linecap="round"/><path d="M-124 177l-38 18 24 52 50-26z" fill="#c7795e"/><path d="M-112 190l26 25" stroke="#f7e5b8" stroke-width="7"/></g><path d="M310 395q96-66 194 0" fill="none" stroke="#d5bb83" stroke-width="12" stroke-linecap="round"/></svg>